<mxfile host="app.diagrams.net" modified="2023-06-17T11:32:27.853Z" agent="Mozilla/5.0 (X11; Linux aarch64) AppleWebKit/537.36 (KHTML, like Gecko) Chrome/86.0.4240.198 Safari/537.36" etag="jjE88boLsxLCGclFGt_j" version="21.4.0" type="github">
  <diagram name="é¡µ-1" id="Devt-6vzbEHUXkd9aocY">
    <mxGraphModel dx="782" dy="413" grid="1" gridSize="10" guides="1" tooltips="1" connect="1" arrows="1" fold="1" page="1" pageScale="1" pageWidth="827" pageHeight="1169" math="0" shadow="0">
      <root>
        <mxCell id="0" />
        <mxCell id="1" parent="0" />
        <UserObject label="" tags="Background" id="k5aG_gtcxQqKUkOQ4-xb-1">
          <mxCell style="vsdxID=1;fillColor=none;gradientColor=none;points=[];labelBackgroundColor=none;rounded=0;strokeColor=none;html=1;whiteSpace=wrap;" vertex="1" parent="1">
            <mxGeometry x="175" y="66" width="119" height="41" as="geometry" />
          </mxCell>
        </UserObject>
        <mxCell id="k5aG_gtcxQqKUkOQ4-xb-2" style="vsdxID=2;fillColor=none;gradientColor=none;strokeOpacity=0;shape=stencil(UzV2Ls5ILEhVNTIoLinKz04tz0wpyVA1dlE1MsrMy0gtyiwBslSNXVWNndPyi1LTi/JL81Ig/IJEkEoQKze/DGRCBUSfAUiHkUElMs8NojAnMw+nQkMDPEphkmQpJtoJKAqBDIQPgRx07wOFIEFn7AoA);strokeWidth=0;spacingTop=-3;spacingBottom=-3;spacingLeft=-3;spacingRight=-3;points=[];labelBackgroundColor=none;rounded=0;html=1;whiteSpace=wrap;" vertex="1" parent="k5aG_gtcxQqKUkOQ4-xb-1">
          <mxGeometry width="119" height="41" as="geometry" />
        </mxCell>
        <UserObject label="&lt;div style=&quot;font-size: 1px&quot;&gt;&lt;p style=&quot;text-align:center;margin-left:0;margin-right:0;margin-top:0px;margin-bottom:0px;text-indent:0;vertical-align:middle;direction:ltr;&quot;&gt;&lt;font style=&quot;font-size:11px;font-family:0;color:#000000;direction:ltr;letter-spacing:0px;line-height:120%;opacity:1&quot;&gt;MaxPooling&lt;/font&gt;&lt;/p&gt;&lt;/div&gt;" tags="Background" id="k5aG_gtcxQqKUkOQ4-xb-3">
          <mxCell style="verticalAlign=middle;align=center;overflow=width;vsdxID=3;fillColor=#ed6b65;gradientColor=none;shape=stencil(nZBLDoAgDERP0z3SIyjew0SURgSD+Lu9kMZoXLhwN9O+tukAlrNpJg1SzDH4QW/URgNYgZTkjA4UkwJUgGXng+6DX1zLfmoymdXo17xh5zmRJ6Q42BWCfc2oJfdAr+Yv+AP9Cb7OJ3H/2JG1HNGz/84klThPVCc=);strokeColor=#000000;spacingTop=-3;spacingBottom=-3;spacingLeft=-3;spacingRight=-3;points=[];labelBackgroundColor=none;rounded=0;html=1;whiteSpace=wrap;" vertex="1" parent="1">
            <mxGeometry x="221" y="40" width="74" height="18" as="geometry" />
          </mxCell>
        </UserObject>
        <UserObject label="&lt;div style=&quot;font-size: 1px&quot;&gt;&lt;p style=&quot;text-align:center;margin-left:0;margin-right:0;margin-top:0px;margin-bottom:0px;text-indent:0;vertical-align:middle;direction:ltr;&quot;&gt;&lt;font style=&quot;font-size:11px;font-family:0;color:#000000;direction:ltr;letter-spacing:0px;line-height:120%;opacity:1&quot;&gt;AveragePooling&lt;/font&gt;&lt;/p&gt;&lt;/div&gt;" tags="Background" id="k5aG_gtcxQqKUkOQ4-xb-4">
          <mxCell style="verticalAlign=middle;align=center;overflow=width;vsdxID=4;fillColor=#f9b9b9;gradientColor=none;shape=stencil(nZBLDoAgDERP0z3SIyjew0SURgSD+Lu9kMZoXLhwN9O+tukAlrNpJg1SzDH4QW/URgNYgZTkjA4UkwJUgGXng+6DX1zLfmoymdXo17xh5zmRJ6Q42BWCfc2oJfdAr+Yv+AP9Cb7OJ3H/2JG1HNGz/84klThPVCc=);strokeColor=#000000;spacingTop=-3;spacingBottom=-3;spacingLeft=-3;spacingRight=-3;points=[];labelBackgroundColor=none;rounded=0;html=1;whiteSpace=wrap;" vertex="1" parent="1">
            <mxGeometry x="221" y="112" width="74" height="18" as="geometry" />
          </mxCell>
        </UserObject>
        <UserObject label="&lt;div style=&quot;font-size: 1px&quot;&gt;&lt;p style=&quot;text-align:center;margin-left:0;margin-right:0;margin-top:0px;margin-bottom:0px;text-indent:0;vertical-align:middle;direction:ltr;&quot;&gt;&lt;font style=&quot;font-size:11px;font-family:0;color:#000000;direction:ltr;letter-spacing:0px;line-height:120%;opacity:1&quot;&gt;Conv&lt;/font&gt;&lt;/p&gt;&lt;/div&gt;" tags="Background" id="k5aG_gtcxQqKUkOQ4-xb-5">
          <mxCell style="verticalAlign=middle;align=center;overflow=width;vsdxID=5;fillColor=#ffc000;gradientColor=none;shape=stencil(nZBLDoAgDERP0z3SIyjew0SURgSD+Lu9kMZoXLhwN9O+tukAlrNpJg1SzDH4QW/URgNYgZTkjA4UkwJUgGXng+6DX1zLfmoymdXo17xh5zmRJ6Q42BWCfc2oJfdAr+Yv+AP9Cb7OJ3H/2JG1HNGz/84klThPVCc=);strokeColor=#000000;spacingTop=-3;spacingBottom=-3;spacingLeft=-3;spacingRight=-3;points=[];labelBackgroundColor=none;rounded=0;html=1;whiteSpace=wrap;" vertex="1" parent="1">
            <mxGeometry x="421" y="73" width="63" height="21" as="geometry" />
          </mxCell>
        </UserObject>
        <UserObject label="&lt;div style=&quot;font-size: 1px&quot;&gt;&lt;p style=&quot;text-align:center;margin-left:0;margin-right:0;margin-top:0px;margin-bottom:0px;text-indent:0;vertical-align:middle;direction:ltr;&quot;&gt;&lt;font style=&quot;font-size:11px;font-family:0;color:#000000;direction:ltr;letter-spacing:0px;line-height:120%;opacity:1&quot;&gt;SoftMax&lt;/font&gt;&lt;/p&gt;&lt;/div&gt;" tags="Background" id="k5aG_gtcxQqKUkOQ4-xb-6">
          <mxCell style="verticalAlign=middle;align=center;overflow=width;vsdxID=6;fillColor=#b6b6b6;gradientColor=none;shape=stencil(nZBLDoAgDERP0z3SIyjew0SURgSD+Lu9kMZoXLhwN9O+tukAlrNpJg1SzDH4QW/URgNYgZTkjA4UkwJUgGXng+6DX1zLfmoymdXo17xh5zmRJ6Q42BWCfc2oJfdAr+Yv+AP9Cb7OJ3H/2JG1HNGz/84klThPVCc=);strokeColor=#000000;spacingTop=-3;spacingBottom=-3;spacingLeft=-3;spacingRight=-3;points=[];labelBackgroundColor=none;rounded=0;html=1;whiteSpace=wrap;" vertex="1" parent="1">
            <mxGeometry x="506" y="73" width="63" height="21" as="geometry" />
          </mxCell>
        </UserObject>
        <UserObject label="" tags="Background" id="k5aG_gtcxQqKUkOQ4-xb-7">
          <mxCell style="vsdxID=7;fillColor=none;gradientColor=none;points=[];labelBackgroundColor=none;rounded=0;strokeColor=none;html=1;whiteSpace=wrap;" vertex="1" parent="1">
            <mxGeometry x="320" y="50" width="72" height="70" as="geometry" />
          </mxCell>
        </UserObject>
        <mxCell id="k5aG_gtcxQqKUkOQ4-xb-8" style="vsdxID=8;fillColor=#ab9ac0;gradientColor=none;shape=stencil(nZBLDoAgDERP0z3SIyjew0SURgSD+Lu9kMZoXLhwN9O+tukAlrNpJg1SzDH4QW/URgNYgZTkjA4UkwJUgGXng+6DX1zLfmoymdXo17xh5zmRJ6Q42BWCfc2oJfdAr+Yv+AP9Cb7OJ3H/2JG1HNGz/84klThPVCc=);strokeColor=#000000;spacingTop=-3;spacingBottom=-3;spacingLeft=-3;spacingRight=-3;points=[];labelBackgroundColor=none;rounded=0;html=1;whiteSpace=wrap;" vertex="1" parent="k5aG_gtcxQqKUkOQ4-xb-7">
          <mxGeometry x="6" width="66" height="65" as="geometry" />
        </mxCell>
        <mxCell id="k5aG_gtcxQqKUkOQ4-xb-9" value="&lt;div style=&quot;font-size: 1px&quot;&gt;&lt;p style=&quot;text-align:center;margin-left:0;margin-right:0;margin-top:0px;margin-bottom:0px;text-indent:0;vertical-align:middle;direction:ltr;&quot;&gt;&lt;font style=&quot;font-size:14px;font-family:0;color:#000000;direction:ltr;letter-spacing:0px;line-height:120%;opacity:1&quot;&gt;Concat&lt;/font&gt;&lt;/p&gt;&lt;/div&gt;" style="verticalAlign=middle;align=center;overflow=width;vsdxID=9;fillColor=#ab9ac0;gradientColor=none;shape=stencil(nZBLDoAgDERP0z3SIyjew0SURgSD+Lu9kMZoXLhwN9O+tukAlrNpJg1SzDH4QW/URgNYgZTkjA4UkwJUgGXng+6DX1zLfmoymdXo17xh5zmRJ6Q42BWCfc2oJfdAr+Yv+AP9Cb7OJ3H/2JG1HNGz/84klThPVCc=);strokeColor=#000000;spacingTop=-3;spacingBottom=-3;spacingLeft=-3;spacingRight=-3;points=[];labelBackgroundColor=none;rounded=0;html=1;whiteSpace=wrap;" vertex="1" parent="k5aG_gtcxQqKUkOQ4-xb-7">
          <mxGeometry y="5" width="66" height="65" as="geometry" />
        </mxCell>
        <UserObject label="&lt;div style=&quot;font-size: 1px&quot;&gt;&lt;p style=&quot;text-align:center;margin-left:0;margin-right:0;margin-top:0px;margin-bottom:0px;text-indent:0;vertical-align:middle;direction:ltr;&quot;&gt;&lt;font style=&quot;font-size:11px;font-family:0;color:#000000;direction:ltr;letter-spacing:0px;line-height:120%;opacity:1&quot;&gt;Edge Detection&lt;/font&gt;&lt;/p&gt;&lt;/div&gt;" tags="Background" id="k5aG_gtcxQqKUkOQ4-xb-10">
          <mxCell style="verticalAlign=middle;align=center;overflow=width;vsdxID=10;fillColor=#ffffff;gradientColor=none;shape=stencil(nZBLDoAgDERP0z3SIyjew0SURgSD+Lu9kMZoXLhwN9O+tukAlrNpJg1SzDH4QW/URgNYgZTkjA4UkwJUgGXng+6DX1zLfmoymdXo17xh5zmRJ6Q42BWCfc2oJfdAr+Yv+AP9Cb7OJ3H/2JG1HNGz/84klThPVCc=);strokeColor=#000000;spacingTop=-3;spacingBottom=-3;spacingLeft=-3;spacingRight=-3;points=[];labelBackgroundColor=none;rounded=0;html=1;whiteSpace=wrap;" vertex="1" parent="1">
            <mxGeometry x="94" y="66" width="91" height="36" as="geometry" />
          </mxCell>
        </UserObject>
        <UserObject label="" tags="Background" id="k5aG_gtcxQqKUkOQ4-xb-11">
          <mxCell style="vsdxID=11;fillColor=#FFFFFF;gradientColor=none;shape=stencil(jZLdDoIwDIWfZpeSbY3oPeJ7EBmyiIyMofD2slQC+4ly13N22m9pSiDr66IThNPeaPUQb1mamsCFcC7bWmhp5opATiCrlBZ3rYa2RN0VNmmrp3rZCSP2UdvB6YTqiPKKydugMcrc7FceWJqkJ/RGjh6jS4hHQuCHYA92jS9GBOxhWQT7E9rIdudW3P1tOJPvREefIQFwGlYnSggb/hDCLwWEuVgPopJNg/e0ffcPaLbw+CD/AA==);strokeColor=#000000;strokeWidth=2;spacingTop=-3;spacingBottom=-3;spacingLeft=-3;spacingRight=-3;points=[];labelBackgroundColor=none;rounded=0;html=1;whiteSpace=wrap;" vertex="1" parent="1">
            <mxGeometry x="596" y="73" width="21" height="21" as="geometry" />
          </mxCell>
        </UserObject>
        <UserObject label="" tags="Background" id="k5aG_gtcxQqKUkOQ4-xb-12">
          <mxCell style="vsdxID=12;fillColor=none;gradientColor=none;shape=stencil(jZFRDsIgEERPs58a2I31ALXeo7EoRIWG0lpvL2RtGgkx/ZuZvGWSAagedNsrQDEE7+7qZbqggU6AaKxW3oSogBqg+uq8unk32o593yYyqaeb0gsz34l0geLN7sD2zORl9IzKX/Zrd7LaV0fOZuRMigXCAkQ5RFtqV3wJCsVZrSzU/i19GLtxlSjWMaPJl44R/xI1Hw==);strokeColor=none;strokeWidth=0;spacingTop=-3;spacingBottom=-3;spacingLeft=-3;spacingRight=-3;points=[];labelBackgroundColor=none;rounded=0;html=1;whiteSpace=wrap;" vertex="1" parent="1">
            <mxGeometry x="596" y="73" width="21" height="21" as="geometry" />
          </mxCell>
        </UserObject>
        <UserObject label="" tags="Background" id="k5aG_gtcxQqKUkOQ4-xb-13">
          <mxCell style="vsdxID=13;edgeStyle=none;startArrow=none;endArrow=block;startSize=5;endSize=5;spacingTop=0;spacingBottom=0;spacingLeft=0;spacingRight=0;verticalAlign=middle;html=1;labelBackgroundColor=#ffffff;rounded=0;exitX=1;exitY=0.5;exitDx=0;exitDy=0;exitPerimeter=0;entryX=0;entryY=0.5076923076923077;entryDx=0;entryDy=0;entryPerimeter=0;" edge="1" parent="1" source="k5aG_gtcxQqKUkOQ4-xb-4" target="k5aG_gtcxQqKUkOQ4-xb-9">
            <mxGeometry relative="1" as="geometry">
              <mxPoint x="-10" y="87" as="offset" />
              <Array as="points">
                <mxPoint x="304.5" y="121" />
                <mxPoint x="304.5" y="87.5" />
              </Array>
            </mxGeometry>
          </mxCell>
        </UserObject>
        <UserObject label="" tags="Background" id="k5aG_gtcxQqKUkOQ4-xb-14">
          <mxCell style="vsdxID=14;edgeStyle=none;startArrow=none;endArrow=block;startSize=5;endSize=5;spacingTop=0;spacingBottom=0;spacingLeft=0;spacingRight=0;verticalAlign=middle;html=1;labelBackgroundColor=#ffffff;rounded=0;exitX=1;exitY=0.5076923076923077;exitDx=0;exitDy=0;exitPerimeter=0;entryX=0;entryY=0.47619047619047616;entryDx=0;entryDy=0;entryPerimeter=0;" edge="1" parent="1" source="k5aG_gtcxQqKUkOQ4-xb-8" target="k5aG_gtcxQqKUkOQ4-xb-5">
            <mxGeometry relative="1" as="geometry">
              <mxPoint x="-14" y="102" as="offset" />
              <Array as="points">
                <mxPoint x="406.44000000000005" y="83" />
                <mxPoint x="406.44000000000005" y="83" />
              </Array>
            </mxGeometry>
          </mxCell>
        </UserObject>
        <UserObject label="" tags="Background" id="k5aG_gtcxQqKUkOQ4-xb-15">
          <mxCell style="vsdxID=15;edgeStyle=none;startArrow=none;endArrow=block;startSize=5;endSize=5;spacingTop=0;spacingBottom=0;spacingLeft=0;spacingRight=0;verticalAlign=middle;html=1;labelBackgroundColor=#ffffff;rounded=0;exitX=1.010989010989011;exitY=0.5;exitDx=0;exitDy=0;exitPerimeter=0;entryX=0;entryY=0.5;entryDx=0;entryDy=0;entryPerimeter=0;" edge="1" parent="1" source="k5aG_gtcxQqKUkOQ4-xb-10" target="k5aG_gtcxQqKUkOQ4-xb-3">
            <mxGeometry relative="1" as="geometry">
              <mxPoint x="-18" y="84" as="offset" />
              <Array as="points">
                <mxPoint x="203.62" y="84" />
                <mxPoint x="203.62" y="49.5" />
              </Array>
            </mxGeometry>
          </mxCell>
        </UserObject>
        <mxCell id="k5aG_gtcxQqKUkOQ4-xb-16" vertex="1" parent="1">
          <mxGeometry x="40" y="85" as="geometry" />
        </mxCell>
        <UserObject label="" tags="Background" id="k5aG_gtcxQqKUkOQ4-xb-17">
          <mxCell style="vsdxID=16;edgeStyle=none;startArrow=none;endArrow=block;startSize=5;endSize=5;spacingTop=0;spacingBottom=0;spacingLeft=0;spacingRight=0;verticalAlign=middle;html=1;labelBackgroundColor=#ffffff;rounded=0;entryX=0;entryY=0.5277777777777778;entryDx=0;entryDy=0;entryPerimeter=0;" edge="1" parent="1" source="k5aG_gtcxQqKUkOQ4-xb-16" target="k5aG_gtcxQqKUkOQ4-xb-10">
            <mxGeometry relative="1" as="geometry">
              <mxPoint x="-27" y="102" as="offset" />
              <Array as="points">
                <mxPoint x="67.44" y="85" />
                <mxPoint x="67.44" y="85" />
              </Array>
            </mxGeometry>
          </mxCell>
        </UserObject>
        <mxCell id="k5aG_gtcxQqKUkOQ4-xb-18" vertex="1" parent="1">
          <mxGeometry x="665" y="84" as="geometry" />
        </mxCell>
        <UserObject label="" tags="Background" id="k5aG_gtcxQqKUkOQ4-xb-19">
          <mxCell style="vsdxID=17;edgeStyle=none;startArrow=none;endArrow=block;startSize=5;endSize=5;spacingTop=0;spacingBottom=0;spacingLeft=0;spacingRight=0;verticalAlign=middle;html=1;labelBackgroundColor=#ffffff;rounded=0;exitX=1;exitY=0.5238095238095238;exitDx=0;exitDy=0;exitPerimeter=0;" edge="1" parent="1" source="k5aG_gtcxQqKUkOQ4-xb-11" target="k5aG_gtcxQqKUkOQ4-xb-18">
            <mxGeometry relative="1" as="geometry">
              <mxPoint x="-24" y="102" as="offset" />
              <Array as="points">
                <mxPoint x="640.75" y="84" />
                <mxPoint x="640.75" y="84" />
              </Array>
            </mxGeometry>
          </mxCell>
        </UserObject>
        <UserObject label="" tags="Background" id="k5aG_gtcxQqKUkOQ4-xb-20">
          <mxCell style="vsdxID=18;edgeStyle=none;startArrow=none;endArrow=block;startSize=5;endSize=5;spacingTop=0;spacingBottom=0;spacingLeft=0;spacingRight=0;verticalAlign=middle;html=1;labelBackgroundColor=#ffffff;rounded=0;exitX=1;exitY=0.5238095238095238;exitDx=0;exitDy=0;exitPerimeter=0;entryX=0;entryY=0.5238095238095238;entryDx=0;entryDy=0;entryPerimeter=0;" edge="1" parent="1" source="k5aG_gtcxQqKUkOQ4-xb-6" target="k5aG_gtcxQqKUkOQ4-xb-11">
            <mxGeometry relative="1" as="geometry">
              <mxPoint x="-14" y="102" as="offset" />
              <Array as="points">
                <mxPoint x="582.69" y="84" />
                <mxPoint x="582.69" y="84" />
              </Array>
            </mxGeometry>
          </mxCell>
        </UserObject>
        <UserObject label="" tags="Background" id="k5aG_gtcxQqKUkOQ4-xb-21">
          <mxCell style="vsdxID=19;edgeStyle=none;startArrow=none;endArrow=block;startSize=5;endSize=5;spacingTop=0;spacingBottom=0;spacingLeft=0;spacingRight=0;verticalAlign=middle;html=1;labelBackgroundColor=#ffffff;rounded=0;exitX=1;exitY=0.5;exitDx=0;exitDy=0;exitPerimeter=0;entryX=0;entryY=0.5076923076923077;entryDx=0;entryDy=0;entryPerimeter=0;" edge="1" parent="1" source="k5aG_gtcxQqKUkOQ4-xb-3" target="k5aG_gtcxQqKUkOQ4-xb-9">
            <mxGeometry relative="1" as="geometry">
              <mxPoint x="-10" y="117" as="offset" />
              <Array as="points">
                <mxPoint x="304.5" y="49" />
                <mxPoint x="304.5" y="87.5" />
              </Array>
            </mxGeometry>
          </mxCell>
        </UserObject>
        <mxCell id="k5aG_gtcxQqKUkOQ4-xb-22" vertex="1" parent="1">
          <mxGeometry x="58" y="85" as="geometry" />
        </mxCell>
        <UserObject label="" tags="Background" id="k5aG_gtcxQqKUkOQ4-xb-23">
          <mxCell style="vsdxID=20;edgeStyle=none;startArrow=none;endArrow=block;startSize=5;endSize=5;spacingTop=0;spacingBottom=0;spacingLeft=0;spacingRight=0;verticalAlign=middle;html=1;labelBackgroundColor=#ffffff;rounded=0;entryX=0.5238095238095238;entryY=1;entryDx=0;entryDy=0;entryPerimeter=0;" edge="1" parent="1" source="k5aG_gtcxQqKUkOQ4-xb-22" target="k5aG_gtcxQqKUkOQ4-xb-11">
            <mxGeometry relative="1" as="geometry">
              <mxPoint x="-270" y="23" as="offset" />
              <Array as="points">
                <mxPoint x="74.44999999999999" y="85" />
                <mxPoint x="74.44999999999999" y="172.97000000000003" />
                <mxPoint x="606.5" y="172.97000000000003" />
              </Array>
            </mxGeometry>
          </mxCell>
        </UserObject>
        <UserObject label="" tags="Background" id="k5aG_gtcxQqKUkOQ4-xb-24">
          <mxCell style="vsdxID=21;edgeStyle=none;startArrow=none;endArrow=block;startSize=5;endSize=5;spacingTop=0;spacingBottom=0;spacingLeft=0;spacingRight=0;verticalAlign=middle;html=1;labelBackgroundColor=#ffffff;rounded=0;exitX=1;exitY=0.5238095238095238;exitDx=0;exitDy=0;exitPerimeter=0;entryX=0;entryY=0.5238095238095238;entryDx=0;entryDy=0;entryPerimeter=0;" edge="1" parent="1" source="k5aG_gtcxQqKUkOQ4-xb-5" target="k5aG_gtcxQqKUkOQ4-xb-6">
            <mxGeometry relative="1" as="geometry">
              <mxPoint x="-11" y="102" as="offset" />
              <Array as="points">
                <mxPoint x="495" y="84" />
                <mxPoint x="495" y="84" />
              </Array>
            </mxGeometry>
          </mxCell>
        </UserObject>
        <UserObject label="" tags="Background" id="k5aG_gtcxQqKUkOQ4-xb-25">
          <mxCell style="vsdxID=22;edgeStyle=none;startArrow=none;endArrow=block;startSize=5;endSize=5;spacingTop=0;spacingBottom=0;spacingLeft=0;spacingRight=0;verticalAlign=middle;html=1;labelBackgroundColor=#ffffff;rounded=0;exitX=1.010989010989011;exitY=0.5;exitDx=0;exitDy=0;exitPerimeter=0;entryX=0;entryY=0.5;entryDx=0;entryDy=0;entryPerimeter=0;" edge="1" parent="1" source="k5aG_gtcxQqKUkOQ4-xb-10" target="k5aG_gtcxQqKUkOQ4-xb-4">
            <mxGeometry relative="1" as="geometry">
              <mxPoint x="-18" y="120" as="offset" />
              <Array as="points">
                <mxPoint x="203.62" y="84" />
                <mxPoint x="203.62" y="121.5" />
              </Array>
            </mxGeometry>
          </mxCell>
        </UserObject>
      </root>
    </mxGraphModel>
  </diagram>
</mxfile>
